<?xml version="1.0" standalone="no"?>
<!DOCTYPE svg PUBLIC "-//W3C//DTD SVG 20010904//EN"
 "http://www.w3.org/TR/2001/REC-SVG-20010904/DTD/svg10.dtd">
<svg version="1.0" xmlns="http://www.w3.org/2000/svg"
 width="700.000000pt" height="700.000000pt" viewBox="0 0 700.000000 700.000000"
 preserveAspectRatio="xMidYMid meet">
<metadata>
Created by potrace 1.14, written by Peter Selinger 2001-2017
</metadata>
<g transform="translate(0.000000,700.000000) scale(0.100000,-0.100000)"
fill="#000000" stroke="none">
<path d="M3270 6250 c-246 -36 -464 -118 -649 -242 -83 -57 -90 -62 -173 -137
-270 -247 -442 -621 -475 -1036 -15 -195 -6 -378 28 -538 28 -129 26 -124 50
-196 107 -327 344 -616 657 -800 l72 -43 -113 -38 c-311 -104 -532 -229 -787
-446 -123 -104 -211 -198 -365 -385 -32 -39 -177 -258 -223 -336 -92 -157
-255 -504 -269 -573 -3 -18 1 -48 12 -75 31 -82 122 -113 204 -71 39 21 49 37
106 171 205 484 487 871 820 1126 76 59 181 126 270 174 75 40 242 115 258
115 5 0 23 7 40 15 94 43 423 109 597 119 160 10 414 6 530 -9 65 -8 123 -16
140 -19 748 -137 1281 -566 1654 -1328 81 -167 92 -198 95 -270 8 -181 -125
-349 -310 -392 -56 -14 -285 -16 -1781 -16 -1096 0 -1726 -4 -1743 -10 -115
-44 -122 -211 -11 -264 31 -15 189 -16 1765 -16 1895 0 1808 -3 1946 58 249
108 421 346 429 596 5 132 -27 243 -129 446 -115 230 -241 431 -379 605 -90
113 -290 317 -381 387 -216 168 -469 308 -699 388 -66 22 -121 42 -123 44 -2
2 20 17 50 34 64 36 181 129 257 204 305 301 488 760 483 1208 -2 151 -15 254
-49 400 -27 118 -47 184 -76 250 -166 389 -430 650 -813 805 -80 32 -248 79
-325 90 -19 3 -64 9 -100 14 -103 15 -363 10 -490 -9z m500 -285 c420 -62 742
-288 915 -640 104 -210 138 -362 139 -620 1 -99 -2 -200 -7 -225 -20 -120 -28
-152 -63 -259 -110 -330 -358 -618 -645 -750 -259 -119 -570 -147 -854 -77
-645 159 -1000 618 -997 1286 1 127 9 205 37 352 12 62 68 217 109 297 180
359 527 593 946 638 30 3 57 7 59 9 6 5 313 -4 361 -11z"/>
</g>
</svg>
