<svg width="26" height="26" viewBox="0 0 26 26" fill="none" xmlns="http://www.w3.org/2000/svg">
<g clip-path="url(#clip0_1012_7871)">
<path d="M13.0076 5.53565L12.6558 5.18787C10.9049 3.45662 9.11353 2.63522 7.43705 2.51374L13.0076 5.53565ZM13.0076 5.53565L13.3591 5.18769M13.0076 5.53565L13.3591 5.18769M13.3591 5.18769C15.1098 3.45487 16.8989 2.63737 18.5731 2.51937L18.5736 2.51934M13.3591 5.18769L18.5736 2.51934M18.5736 2.51934C20.4639 2.38432 22.1413 3.14583 23.3663 4.36738L23.7194 4.01333M18.5736 2.51934L23.7194 4.01333M23.7194 4.01333L23.3663 4.36739C25.7972 6.79123 26.5211 11.131 23.5553 14.0969L23.9088 14.4505L23.5562 14.0959C23.5514 14.1007 23.5466 14.1053 23.5416 14.1098L23.5397 14.1115L13.2957 23.3916L13.2954 23.3919M23.7194 4.01333L13.2954 23.3919M13.2954 23.3919C13.2165 23.4635 13.1139 23.5031 13.0074 23.5031C12.9009 23.5031 12.7982 23.4635 12.7194 23.3919L12.7191 23.3916M13.2954 23.3919L12.7191 23.3916M12.7191 23.3916L2.47507 14.1115L2.47349 14.1101M12.7191 23.3916L2.47349 14.1101M2.47349 14.1101C2.46848 14.1056 2.46358 14.1009 2.4588 14.0962C-0.524106 11.1125 0.196986 6.77349 2.63466 4.35329L2.63468 4.35327M2.47349 14.1101L2.63468 4.35327M2.63468 4.35327C3.86282 3.1338 5.54389 2.37695 7.43696 2.51373L2.63468 4.35327Z" stroke="#13A4BD"/>
</g>
<defs>
<clipPath id="clip0_1012_7871">
<rect width="26" height="26" fill="white"/>
</clipPath>
</defs>
</svg>
